<?xml version="1.0" encoding="UTF-8" standalone="no"?>
<!-- Created with Inkscape (http://www.inkscape.org/) -->

<svg
   xmlns:dc="http://purl.org/dc/elements/1.1/"
   xmlns:cc="http://creativecommons.org/ns#"
   xmlns:rdf="http://www.w3.org/1999/02/22-rdf-syntax-ns#"
   xmlns:svg="http://www.w3.org/2000/svg"
   xmlns="http://www.w3.org/2000/svg"
   xmlns:sodipodi="http://sodipodi.sourceforge.net/DTD/sodipodi-0.dtd"
   xmlns:inkscape="http://www.inkscape.org/namespaces/inkscape"
   width="210mm"
   height="297mm"
   viewBox="0 0 744.09448819 1052.3622047"
   id="svg2"
   version="1.1"
   inkscape:version="0.91 r13725"
   sodipodi:docname="drawing2.svg">
  <defs
     id="defs4">
    <inkscape:path-effect
       effect="powerstroke"
       id="path-effect4243"
       is_visible="true"
       offset_points="0,-0.30441616"
       sort_points="true"
       interpolator_type="CubicBezierJohan"
       interpolator_beta="0.2"
       start_linecap_type="zerowidth"
       linejoin_type="round"
       miter_limit="4"
       end_linecap_type="zerowidth"
       cusp_linecap_type="round" />
  </defs>
  <sodipodi:namedview
     id="base"
     pagecolor="#ffffff"
     bordercolor="#666666"
     borderopacity="1.0"
     inkscape:pageopacity="0.0"
     inkscape:pageshadow="2"
     inkscape:zoom="0.25"
     inkscape:cx="52.068054"
     inkscape:cy="538.98849"
     inkscape:document-units="px"
     inkscape:current-layer="layer1"
     showgrid="false"
     inkscape:window-width="1366"
     inkscape:window-height="709"
     inkscape:window-x="-4"
     inkscape:window-y="0"
     inkscape:window-maximized="1" />
  <metadata
     id="metadata7">
    <rdf:RDF>
      <cc:Work
         rdf:about="">
        <dc:format>image/svg+xml</dc:format>
        <dc:type
           rdf:resource="http://purl.org/dc/dcmitype/StillImage" />
        <dc:title />
      </cc:Work>
    </rdf:RDF>
  </metadata>
  <g
     inkscape:label="Capa 1"
     inkscape:groupmode="layer"
     id="layer1">
    <g
       id="g4546">
      <g
         id="g4203"
         transform="matrix(0.56731954,0,0,0.56731954,193.47378,-166.7257)">
        <g
           id="g4178" />
      </g>
    </g>
    <g
       id="g4199"
       transform="translate(22.588064,0)"
       inkscape:export-xdpi="90"
       inkscape:export-ydpi="90">
      <g
         inkscape:export-ydpi="90"
         inkscape:export-xdpi="90"
         transform="matrix(0.56731954,0,0,0.56731954,215.20252,541.2743)"
         id="g4419">
        <g
           style="color:#000000;font-style:normal;font-weight:normal;font-size:40px;line-height:125%;font-family:sans-serif;letter-spacing:0px;word-spacing:0px;clip-rule:nonzero;display:inline;overflow:visible;visibility:visible;opacity:1;isolation:auto;mix-blend-mode:normal;color-interpolation:sRGB;color-interpolation-filters:linearRGB;solid-color:#000000;solid-opacity:1;fill:#0689fb;fill-opacity:1;fill-rule:nonzero;stroke:none;stroke-width:1;stroke-linecap:butt;stroke-linejoin:miter;stroke-miterlimit:4;stroke-dasharray:none;stroke-dashoffset:0;stroke-opacity:1;color-rendering:auto;image-rendering:auto;shape-rendering:auto;text-rendering:auto;enable-background:accumulate"
           id="g4421"
           transform="translate(50.911688,-28.284272)">
          <path
             d="m 227.94408,478.95343 c 12.20703,8.34147 18.31055,18.20882 18.31055,29.60205 0,6.71387 -2.54313,12.30876 -7.6294,16.78467 -5.69661,4.88281 -9.6984,42.32422 -16.00537,42.32422 -101.66904,-68.82868 -186.587375,-13.05463 -100.98047,48.82519 82.59333,45.80049 157.7444,136.49864 103.61415,198.03921 -14.59836,11.79651 -38.33915,25.02046 -67.26096,19.82836 -13.87064,-2.49008 -16.18954,-4.11571 -31.77199,-11.96085 -16.81148,-8.46391 -27.14153,-19.20599 -74.522115,-36.38181 10.913254,-0.47211 62.375725,17.65512 105.768065,24.30289 10.64114,1.63024 23.37137,-2.44791 25.10616,-3.401 17.70348,-9.56894 22.30688,-83.93952 -61.95374,-124.26919 C 37.188852,639.94615 -45.104141,577.75151 10.612537,496.60724 57.691067,438.39078 167.13797,436.79578 227.94408,478.95343 Z"
             style="color:#000000;font-style:normal;font-variant:normal;font-weight:normal;font-stretch:normal;font-size:625px;font-family:UnDinaru;-inkscape-font-specification:UnDinaru;clip-rule:nonzero;display:inline;overflow:visible;visibility:visible;isolation:auto;mix-blend-mode:normal;color-interpolation:sRGB;color-interpolation-filters:linearRGB;solid-color:#000000;solid-opacity:1;fill:#0689fb;fill-opacity:1;fill-rule:nonzero;stroke:none;stroke-width:1;stroke-linecap:butt;stroke-linejoin:miter;stroke-miterlimit:4;stroke-dasharray:none;stroke-dashoffset:0;stroke-opacity:1;color-rendering:auto;image-rendering:auto;shape-rendering:auto;text-rendering:auto;enable-background:accumulate"
             id="path4423"
             inkscape:connector-curvature="0"
             sodipodi:nodetypes="csccccsscscccc" />
        </g>
        <g
           id="g4425">
          <g
             id="g4427">
            <path
               inkscape:connector-curvature="0"
               style="color:#000000;clip-rule:nonzero;display:inline;overflow:visible;visibility:visible;opacity:1;isolation:auto;mix-blend-mode:normal;color-interpolation:sRGB;color-interpolation-filters:linearRGB;solid-color:#000000;solid-opacity:1;fill:#0689fb;fill-opacity:1;fill-rule:nonzero;stroke:none;stroke-width:1;stroke-linecap:butt;stroke-linejoin:miter;stroke-miterlimit:4;stroke-dasharray:none;stroke-dashoffset:0;stroke-opacity:1;color-rendering:auto;image-rendering:auto;shape-rendering:auto;text-rendering:auto;enable-background:accumulate"
               d="m 346.48242,341.21484 c -77.54697,0 -144.56972,62.07261 -140.41211,138.39063 2.41026,44.24328 43.45263,91.00988 55.95313,130.0293 6.80861,21.25258 9.10631,32.74574 31.71679,37.66796 12.02027,2.61677 43.46167,-14.27929 54.61524,-14.27929 0.37201,0 0.75873,0.019 1.1582,0.0488 l 0,-291.82032 c -1.00862,-0.0211 -2.0175,-0.0371 -3.03125,-0.0371 z m 7.00586,0 c -1.01375,0 -2.02263,0.016 -3.03125,0.0371 l 0,291.82032 c 0.39947,-0.0298 0.78619,-0.0488 1.1582,-0.0488 11.15357,0 42.59497,16.89606 54.61524,14.27929 22.61048,-4.92222 24.90819,-16.41538 31.7168,-37.66796 12.5005,-39.01942 53.54286,-85.78602 55.95312,-130.0293 C 498.058,403.28745 431.03525,341.21484 353.48828,341.21484 Z"
               id="path4429" />
            <path
               style="color:#000000;clip-rule:nonzero;display:inline;overflow:visible;visibility:visible;opacity:1;isolation:auto;mix-blend-mode:normal;color-interpolation:sRGB;color-interpolation-filters:linearRGB;solid-color:#000000;solid-opacity:1;fill:#ffffff;fill-opacity:1;fill-rule:nonzero;stroke:none;stroke-width:0.35898575;stroke-linecap:butt;stroke-linejoin:miter;stroke-miterlimit:4;stroke-dasharray:none;stroke-dashoffset:0;stroke-opacity:1;color-rendering:auto;image-rendering:auto;shape-rendering:auto;text-rendering:auto;enable-background:accumulate"
               d="m 326.29315,525.24846 c -3.63208,19.70727 -17.70003,36.18738 -39.53417,36.18738 -21.83413,0 -31.62594,-17.55862 -39.53416,-36.18738 -45.16204,-106.38455 -13.55983,-62.23401 35.31725,-52.67837 2.19402,0.42894 3.87322,2.54894 3.02736,5.00572 -0.30847,0.8959 -2.46296,5.35545 -2.63593,6.1732 -7.21451,34.10891 2.86101,35.38029 3.93458,31.57546 4.58271,-16.24114 8.19975,-16.87547 12.33878,-20.23829 0.52191,-0.42402 3.17595,-1.84845 5.06218,-2.01962 2.17679,-0.19754 4.20879,1.17253 4.75897,1.62622 14.0035,11.548 20.31149,14.02668 17.26514,30.55568 z"
               id="path4431"
               inkscape:connector-curvature="0"
               sodipodi:nodetypes="sssssssssss" />
            <path
               sodipodi:nodetypes="sssssssssss"
               inkscape:connector-curvature="0"
               id="path4433"
               d="m 374.19425,525.24846 c 3.63208,19.70727 17.70003,36.18738 39.53417,36.18738 21.83413,0 31.62594,-17.55862 39.53416,-36.18738 45.16204,-106.38455 13.55983,-62.23401 -35.31725,-52.67837 -2.19402,0.42894 -3.87322,2.54894 -3.02736,5.00572 0.30847,0.8959 2.46296,5.35545 2.63593,6.1732 7.21451,34.10891 -2.86101,35.38029 -3.93458,31.57546 -4.58271,-16.24114 -8.19975,-16.87547 -12.33878,-20.23829 -0.52191,-0.42402 -3.17595,-1.84845 -5.06218,-2.01962 -2.17679,-0.19754 -4.20879,1.17253 -4.75897,1.62622 -14.0035,11.548 -20.31149,14.02668 -17.26514,30.55568 z"
               style="color:#000000;clip-rule:nonzero;display:inline;overflow:visible;visibility:visible;opacity:1;isolation:auto;mix-blend-mode:normal;color-interpolation:sRGB;color-interpolation-filters:linearRGB;solid-color:#000000;solid-opacity:1;fill:#ffffff;fill-opacity:1;fill-rule:nonzero;stroke:none;stroke-width:0.35898575;stroke-linecap:butt;stroke-linejoin:miter;stroke-miterlimit:4;stroke-dasharray:none;stroke-dashoffset:0;stroke-opacity:1;color-rendering:auto;image-rendering:auto;shape-rendering:auto;text-rendering:auto;enable-background:accumulate" />
          </g>
          <path
             sodipodi:nodetypes="cccccccc"
             inkscape:connector-curvature="0"
             id="path4435"
             d="m 340.82369,624.55613 c 0.54303,9.98554 6.64733,20.97707 -0.54514,28.57829 -23.22959,28.99348 -16.99481,28.52002 -24.37117,42.00439 10.52322,-12.79465 21.24483,-30.91649 33.19533,-29.48942 2.33718,-0.51681 22.36727,17.71479 33.2837,31.95161 -6.29975,-13.38691 -1.90505,-8.96664 -24.16421,-44.08324 -2.80935,-1.81893 -3.57283,-19.23407 -3.61006,-29.10671 z"
             style="color:#000000;clip-rule:nonzero;display:inline;overflow:visible;visibility:visible;opacity:1;isolation:auto;mix-blend-mode:normal;color-interpolation:sRGB;color-interpolation-filters:linearRGB;solid-color:#000000;solid-opacity:1;fill:#0689fb;fill-opacity:1;fill-rule:nonzero;stroke:none;stroke-width:1;stroke-linecap:butt;stroke-linejoin:miter;stroke-miterlimit:4;stroke-dasharray:none;stroke-dashoffset:0;stroke-opacity:1;color-rendering:auto;image-rendering:auto;shape-rendering:auto;text-rendering:auto;enable-background:accumulate" />
        </g>
        <ellipse
           style="color:#000000;clip-rule:nonzero;display:inline;overflow:visible;visibility:visible;opacity:1;isolation:auto;mix-blend-mode:normal;color-interpolation:sRGB;color-interpolation-filters:linearRGB;solid-color:#000000;solid-opacity:1;fill:#0689fb;fill-opacity:1;fill-rule:nonzero;stroke:none;stroke-width:1;stroke-linecap:butt;stroke-linejoin:miter;stroke-miterlimit:4;stroke-dasharray:none;stroke-dashoffset:0;stroke-opacity:1;color-rendering:auto;image-rendering:auto;shape-rendering:auto;text-rendering:auto;enable-background:accumulate"
           id="ellipse4437"
           cx="349.75272"
           cy="484.64386"
           rx="16.263456"
           ry="143.45428" />
      </g>
      <path
         sodipodi:nodetypes="csscccccccssccccccscccscsscc"
         inkscape:connector-curvature="0"
         id="rect3338"
         d="m 335.81704,985.24067 c -20.04695,-2.24311 -24.86601,-5.46853 -37.04059,-9.21661 -2.55937,-0.78793 -21.3959,-10.12608 -23.89357,-10.91637 -0.66049,-0.20898 1.25368,-7.3732 2.84533,-15.03323 0.70476,-3.39193 -6.34376,-8.03783 -13.56055,-11.67884 -1.54823,-0.78114 -0.49234,-3.11179 -0.49234,-3.11179 l -6.61204,-2.65706 -2.42327,6.48405 6.42724,3.26428 c 0,0 0.81417,-3.61122 2.34388,-2.66688 6.05313,3.73705 11.60391,7.93826 10.4599,11.48298 -2.04612,6.33969 -3.99634,12.21857 -4.72186,11.98153 -19.72646,-6.44507 -40.25899,-16.56555 -50.16353,-21.41025 -0.86838,-0.42472 2.1432,-2.33072 2.1432,-2.33072 l -10.24497,-1.41963 6.60249,8.42441 c 0,0 0.14171,-3.93074 1.01088,-3.41085 8.90644,5.32708 23.97114,13.60036 32.19939,18.5277 0.60477,0.3621 -2.50711,5.36386 -5.70536,10.4833 -1.85773,2.9737 -8.9923,1.22755 -14.72127,-0.69977 -1.10772,-0.37264 -2.06662,-3.20734 -3.17507,-3.75225 -1.93814,-0.95281 -4.3263,-0.0505 -4.81146,1.75645 -0.50012,1.86285 0.68084,3.50326 2.1267,4.01709 1.11781,0.39725 4.07238,-1.17812 5.51762,-0.60204 6.58578,2.62487 14.78257,5.20372 16.80869,2.85259 4.69452,-5.44759 9.1848,-11.336 9.88678,-10.90081 22.35462,13.85869 57.07067,31.02974 79.97666,34.27248 z"
         style="color:#000000;clip-rule:nonzero;display:inline;overflow:visible;visibility:visible;opacity:1;isolation:auto;mix-blend-mode:normal;color-interpolation:sRGB;color-interpolation-filters:linearRGB;solid-color:#000000;solid-opacity:1;fill:#0689fb;fill-opacity:1;fill-rule:nonzero;stroke:none;stroke-width:1;stroke-linecap:butt;stroke-linejoin:miter;stroke-miterlimit:4;stroke-dasharray:none;stroke-dashoffset:0;stroke-opacity:1;color-rendering:auto;image-rendering:auto;shape-rendering:auto;text-rendering:auto;enable-background:accumulate" />
      <path
         style="color:#000000;clip-rule:nonzero;display:inline;overflow:visible;visibility:visible;opacity:1;isolation:auto;mix-blend-mode:normal;color-interpolation:sRGB;color-interpolation-filters:linearRGB;solid-color:#000000;solid-opacity:1;fill:#0689fb;fill-opacity:1;fill-rule:nonzero;stroke:none;stroke-width:1;stroke-linecap:butt;stroke-linejoin:miter;stroke-miterlimit:4;stroke-dasharray:none;stroke-dashoffset:0;stroke-opacity:1;color-rendering:auto;image-rendering:auto;shape-rendering:auto;text-rendering:auto;enable-background:accumulate"
         d="m 335.81704,985.24067 c -20.04695,-2.24311 -24.86601,-5.46853 -37.04059,-9.21661 -2.55937,-0.78793 -21.3959,-10.12608 -23.89357,-10.91637 -0.66049,-0.20898 1.25368,-7.3732 2.84533,-15.03323 0.70476,-3.39193 -6.34376,-8.03783 -13.56055,-11.67884 -1.54823,-0.78114 -0.49234,-3.11179 -0.49234,-3.11179 l -6.61204,-2.65706 -2.42327,6.48405 6.42724,3.26428 c 0,0 0.81417,-3.61122 2.34388,-2.66688 6.05313,3.73705 11.60391,7.93826 10.4599,11.48298 -2.04612,6.33969 -3.99634,12.21857 -4.72186,11.98153 -19.72646,-6.44507 -40.25899,-16.56555 -50.16353,-21.41025 -0.86838,-0.42472 2.1432,-2.33072 2.1432,-2.33072 l -10.24497,-1.41963 6.60249,8.42441 c 0,0 0.14171,-3.93074 1.01088,-3.41085 8.90644,5.32708 23.97114,13.60036 32.19939,18.5277 0.60477,0.3621 -2.50711,5.36386 -5.70536,10.4833 -1.85773,2.9737 -8.9923,1.22755 -14.72127,-0.69977 -1.10772,-0.37264 -2.06662,-3.20734 -3.17507,-3.75225 -1.93814,-0.95281 -4.3263,-0.0505 -4.81146,1.75645 -0.50012,1.86285 0.68084,3.50326 2.1267,4.01709 1.11781,0.39725 4.07238,-1.17812 5.51762,-0.60204 6.58578,2.62487 14.78257,5.20372 16.80869,2.85259 4.69452,-5.44759 9.1848,-11.336 9.88678,-10.90081 22.35462,13.85869 57.07067,31.02974 79.97666,34.27248 z"
         id="path4197"
         inkscape:connector-curvature="0"
         sodipodi:nodetypes="csscccccccssccccccscccscsscc" />
    </g>
    <g
       id="g4387"
       transform="translate(8.1421333,0)"
       inkscape:export-xdpi="90"
       inkscape:export-ydpi="90">
      <g
         inkscape:export-ydpi="90"
         inkscape:export-xdpi="90"
         transform="matrix(0.7631579,0,0,0.7631579,773.6409,145.45421)"
         id="g4525">
        <circle
           style="color:#000000;clip-rule:nonzero;display:inline;overflow:visible;visibility:visible;opacity:1;isolation:auto;mix-blend-mode:normal;color-interpolation:sRGB;color-interpolation-filters:linearRGB;solid-color:#000000;solid-opacity:1;fill:#0689fb;fill-opacity:1;fill-rule:nonzero;stroke:none;stroke-width:1;stroke-linecap:butt;stroke-linejoin:miter;stroke-miterlimit:4;stroke-dasharray:none;stroke-dashoffset:0;stroke-opacity:1;color-rendering:auto;image-rendering:auto;shape-rendering:auto;text-rendering:auto;enable-background:accumulate"
           id="path4439"
           cx="-532"
           cy="504.36221"
           r="228" />
      </g>
      <g
         transform="translate(-13.554068,-417.52636)"
         id="g4213">
        <g
           inkscape:export-ydpi="90"
           inkscape:export-xdpi="90"
           transform="matrix(0.56731954,0,0,0.56731954,215.20252,541.2743)"
           id="g4215">
          <g
             id="g4221">
            <g
               id="g4223" />
          </g>
        </g>
        <g
           transform="matrix(0.91567769,0,0,0.91567769,57.782214,153.96322)"
           id="g4376">
          <g
             transform="matrix(0.56731954,0,0,0.56731954,244.08571,525.22808)"
             id="g4217"
             style="color:#000000;font-style:normal;font-weight:normal;font-size:40px;line-height:125%;font-family:sans-serif;letter-spacing:0px;word-spacing:0px;clip-rule:nonzero;display:inline;overflow:visible;visibility:visible;opacity:1;isolation:auto;mix-blend-mode:normal;color-interpolation:sRGB;color-interpolation-filters:linearRGB;solid-color:#000000;solid-opacity:1;fill:#0689fb;fill-opacity:1;fill-rule:nonzero;stroke:none;stroke-width:1;stroke-linecap:butt;stroke-linejoin:miter;stroke-miterlimit:4;stroke-dasharray:none;stroke-dashoffset:0;stroke-opacity:1;color-rendering:auto;image-rendering:auto;shape-rendering:auto;text-rendering:auto;enable-background:accumulate">
            <path
               sodipodi:nodetypes="csccccsscscccc"
               inkscape:connector-curvature="0"
               id="path4219"
               style="color:#000000;font-style:normal;font-variant:normal;font-weight:normal;font-stretch:normal;font-size:625px;font-family:UnDinaru;-inkscape-font-specification:UnDinaru;clip-rule:nonzero;display:inline;overflow:visible;visibility:visible;opacity:1;isolation:auto;mix-blend-mode:normal;color-interpolation:sRGB;color-interpolation-filters:linearRGB;solid-color:#000000;solid-opacity:1;fill:#fffffb;fill-opacity:1;fill-rule:nonzero;stroke:none;stroke-width:1;stroke-linecap:butt;stroke-linejoin:miter;stroke-miterlimit:4;stroke-dasharray:none;stroke-dashoffset:0;stroke-opacity:1;color-rendering:auto;image-rendering:auto;shape-rendering:auto;text-rendering:auto;enable-background:accumulate"
               d="m 227.94408,478.95343 c 12.20703,8.34147 18.31055,18.20882 18.31055,29.60205 0,6.71387 -2.54313,12.30876 -7.6294,16.78467 -5.69661,4.88281 -9.6984,42.32422 -16.00537,42.32422 -101.66904,-68.82868 -186.587375,-13.05463 -100.98047,48.82519 82.59333,45.80049 157.7444,136.49864 103.61415,198.03921 -14.59836,11.79651 -38.33915,25.02046 -67.26096,19.82836 -13.87064,-2.49008 -16.18954,-4.11571 -31.77199,-11.96085 -16.81148,-8.46391 -27.14153,-19.20599 -74.522115,-36.38181 10.913254,-0.47211 62.375725,17.65512 105.768065,24.30289 10.64114,1.63024 23.37137,-2.44791 25.10616,-3.401 17.70348,-9.56894 22.30688,-83.93952 -61.95374,-124.26919 C 37.188852,639.94615 -45.104141,577.75151 10.612537,496.60724 57.691067,438.39078 167.13797,436.79578 227.94408,478.95343 Z" />
          </g>
          <path
             transform="matrix(0.56731954,0,0,0.56731954,215.20252,541.2743)"
             id="path4225"
             d="m 346.48242,341.21484 c -77.54697,0 -144.56972,62.07261 -140.41211,138.39063 2.41026,44.24328 43.45263,91.00988 55.95313,130.0293 6.80861,21.25258 9.10631,32.74574 31.71679,37.66796 12.02027,2.61677 43.46167,-14.27929 54.61524,-14.27929 0.37201,0 0.75873,0.019 1.1582,0.0488 l 0,-291.82032 c -1.00862,-0.0211 -2.0175,-0.0371 -3.03125,-0.0371 z m 7.00586,0 c -1.01375,0 -2.02263,0.016 -3.03125,0.0371 l 0,291.82032 c 0.39947,-0.0298 0.78619,-0.0488 1.1582,-0.0488 11.15357,0 42.59497,16.89606 54.61524,14.27929 22.61048,-4.92222 24.90819,-16.41538 31.7168,-37.66796 12.5005,-39.01942 53.54286,-85.78602 55.95312,-130.0293 C 498.058,403.28745 431.03525,341.21484 353.48828,341.21484 Z"
             style="color:#000000;clip-rule:nonzero;display:inline;overflow:visible;visibility:visible;opacity:1;isolation:auto;mix-blend-mode:normal;color-interpolation:sRGB;color-interpolation-filters:linearRGB;solid-color:#000000;solid-opacity:1;fill:#fffffb;fill-opacity:1;fill-rule:nonzero;stroke:none;stroke-width:1;stroke-linecap:butt;stroke-linejoin:miter;stroke-miterlimit:4;stroke-dasharray:none;stroke-dashoffset:0;stroke-opacity:1;color-rendering:auto;image-rendering:auto;shape-rendering:auto;text-rendering:auto;enable-background:accumulate"
             inkscape:connector-curvature="0" />
          <path
             transform="matrix(0.56731954,0,0,0.56731954,215.20252,541.2743)"
             sodipodi:nodetypes="sssssssssss"
             inkscape:connector-curvature="0"
             id="path4227"
             d="m 326.29315,525.24846 c -3.63208,19.70727 -17.70003,36.18738 -39.53417,36.18738 -21.83413,0 -31.62594,-17.55862 -39.53416,-36.18738 -45.16204,-106.38455 -13.55983,-62.23401 35.31725,-52.67837 2.19402,0.42894 3.87322,2.54894 3.02736,5.00572 -0.30847,0.8959 -2.46296,5.35545 -2.63593,6.1732 -7.21451,34.10891 2.86101,35.38029 3.93458,31.57546 4.58271,-16.24114 8.19975,-16.87547 12.33878,-20.23829 0.52191,-0.42402 3.17595,-1.84845 5.06218,-2.01962 2.17679,-0.19754 4.20879,1.17253 4.75897,1.62622 14.0035,11.548 20.31149,14.02668 17.26514,30.55568 z"
             style="color:#000000;clip-rule:nonzero;display:inline;overflow:visible;visibility:visible;opacity:1;isolation:auto;mix-blend-mode:normal;color-interpolation:sRGB;color-interpolation-filters:linearRGB;solid-color:#000000;solid-opacity:1;fill:#0689fb;fill-opacity:1;fill-rule:nonzero;stroke:none;stroke-width:1.34519935;stroke-linecap:butt;stroke-linejoin:miter;stroke-miterlimit:4;stroke-dasharray:none;stroke-dashoffset:0;stroke-opacity:1;color-rendering:auto;image-rendering:auto;shape-rendering:auto;text-rendering:auto;enable-background:accumulate" />
          <path
             transform="matrix(0.56731954,0,0,0.56731954,215.20252,541.2743)"
             style="color:#000000;clip-rule:nonzero;display:inline;overflow:visible;visibility:visible;opacity:1;isolation:auto;mix-blend-mode:normal;color-interpolation:sRGB;color-interpolation-filters:linearRGB;solid-color:#000000;solid-opacity:1;fill:#0689fb;fill-opacity:1;fill-rule:nonzero;stroke:none;stroke-width:1.34519935;stroke-linecap:butt;stroke-linejoin:miter;stroke-miterlimit:4;stroke-dasharray:none;stroke-dashoffset:0;stroke-opacity:1;color-rendering:auto;image-rendering:auto;shape-rendering:auto;text-rendering:auto;enable-background:accumulate"
             d="m 374.19425,525.24846 c 3.63208,19.70727 17.70003,36.18738 39.53417,36.18738 21.83413,0 31.62594,-17.55862 39.53416,-36.18738 45.16204,-106.38455 13.55983,-62.23401 -35.31725,-52.67837 -2.19402,0.42894 -3.87322,2.54894 -3.02736,5.00572 0.30847,0.8959 2.46296,5.35545 2.63593,6.1732 7.21451,34.10891 -2.86101,35.38029 -3.93458,31.57546 -4.58271,-16.24114 -8.19975,-16.87547 -12.33878,-20.23829 -0.52191,-0.42402 -3.17595,-1.84845 -5.06218,-2.01962 -2.17679,-0.19754 -4.20879,1.17253 -4.75897,1.62622 -14.0035,11.548 -20.31149,14.02668 -17.26514,30.55568 z"
             id="path4229"
             inkscape:connector-curvature="0"
             sodipodi:nodetypes="sssssssssss" />
          <path
             transform="matrix(0.56731954,0,0,0.56731954,215.20252,541.2743)"
             style="color:#000000;clip-rule:nonzero;display:inline;overflow:visible;visibility:visible;opacity:1;isolation:auto;mix-blend-mode:normal;color-interpolation:sRGB;color-interpolation-filters:linearRGB;solid-color:#000000;solid-opacity:1;fill:#fffffb;fill-opacity:1;fill-rule:nonzero;stroke:none;stroke-width:1;stroke-linecap:butt;stroke-linejoin:miter;stroke-miterlimit:4;stroke-dasharray:none;stroke-dashoffset:0;stroke-opacity:1;color-rendering:auto;image-rendering:auto;shape-rendering:auto;text-rendering:auto;enable-background:accumulate"
             d="m 340.82369,624.55613 c 0.54303,9.98554 6.64733,20.97707 -0.54514,28.57829 -23.22959,28.99348 -16.99481,28.52002 -24.37117,42.00439 10.52322,-12.79465 21.24483,-30.91649 33.19533,-29.48942 2.33718,-0.51681 22.36727,17.71479 33.2837,31.95161 -6.29975,-13.38691 -1.90505,-8.96664 -24.16421,-44.08324 -2.80935,-1.81893 -3.57283,-19.23407 -3.61006,-29.10671 z"
             id="path4231"
             inkscape:connector-curvature="0"
             sodipodi:nodetypes="cccccccc" />
          <ellipse
             transform="matrix(0.56731954,0,0,0.56731954,215.20252,541.2743)"
             ry="143.45428"
             rx="16.263456"
             cy="484.64386"
             cx="349.75272"
             id="ellipse4233"
             style="color:#000000;clip-rule:nonzero;display:inline;overflow:visible;visibility:visible;opacity:1;isolation:auto;mix-blend-mode:normal;color-interpolation:sRGB;color-interpolation-filters:linearRGB;solid-color:#000000;solid-opacity:1;fill:#fffffb;fill-opacity:1;fill-rule:nonzero;stroke:none;stroke-width:1;stroke-linecap:butt;stroke-linejoin:miter;stroke-miterlimit:4;stroke-dasharray:none;stroke-dashoffset:0;stroke-opacity:1;color-rendering:auto;image-rendering:auto;shape-rendering:auto;text-rendering:auto;enable-background:accumulate" />
          <path
             style="color:#000000;clip-rule:nonzero;display:inline;overflow:visible;visibility:visible;opacity:1;isolation:auto;mix-blend-mode:normal;color-interpolation:sRGB;color-interpolation-filters:linearRGB;solid-color:#000000;solid-opacity:1;fill:#0689fb;fill-opacity:1;fill-rule:nonzero;stroke:none;stroke-width:1;stroke-linecap:butt;stroke-linejoin:miter;stroke-miterlimit:4;stroke-dasharray:none;stroke-dashoffset:0;stroke-opacity:1;color-rendering:auto;image-rendering:auto;shape-rendering:auto;text-rendering:auto;enable-background:accumulate"
             d="m 335.81704,985.24067 c -20.04695,-2.24311 -24.86601,-5.46853 -37.04059,-9.21661 -2.55937,-0.78793 -21.3959,-10.12608 -23.89357,-10.91637 -0.66049,-0.20898 1.25368,-7.3732 2.84533,-15.03323 0.70476,-3.39193 -6.34376,-8.03783 -13.56055,-11.67884 -1.54823,-0.78114 -0.49234,-3.11179 -0.49234,-3.11179 l -6.61204,-2.65706 -2.42327,6.48405 6.42724,3.26428 c 0,0 0.81417,-3.61122 2.34388,-2.66688 6.05313,3.73705 11.60391,7.93826 10.4599,11.48298 -2.04612,6.33969 -3.99634,12.21857 -4.72186,11.98153 -19.72646,-6.44507 -40.25899,-16.56555 -50.16353,-21.41025 -0.86838,-0.42472 2.1432,-2.33072 2.1432,-2.33072 l -10.24497,-1.41963 6.60249,8.42441 c 0,0 0.14171,-3.93074 1.01088,-3.41085 8.90644,5.32708 23.97114,13.60036 32.19939,18.5277 0.60477,0.3621 -2.50711,5.36386 -5.70536,10.4833 -1.85773,2.9737 -8.9923,1.22755 -14.72127,-0.69977 -1.10772,-0.37264 -2.06662,-3.20734 -3.17507,-3.75225 -1.93814,-0.95281 -4.3263,-0.0505 -4.81146,1.75645 -0.50012,1.86285 0.68084,3.50326 2.1267,4.01709 1.11781,0.39725 4.07238,-1.17812 5.51762,-0.60204 6.58578,2.62487 14.78257,5.20372 16.80869,2.85259 4.69452,-5.44759 9.1848,-11.336 9.88678,-10.90081 22.35462,13.85869 57.07067,31.02974 79.97666,34.27248 z"
             id="path4235"
             inkscape:connector-curvature="0"
             sodipodi:nodetypes="csscccccccssccccccscccscsscc" />
          <path
             sodipodi:nodetypes="csscccccccssccccccscccscsscc"
             inkscape:connector-curvature="0"
             id="path4237"
             d="m 335.81704,985.24067 c -20.04695,-2.24311 -24.86601,-5.46853 -37.04059,-9.21661 -2.55937,-0.78793 -21.3959,-10.12608 -23.89357,-10.91637 -0.66049,-0.20898 1.25368,-7.3732 2.84533,-15.03323 0.70476,-3.39193 -6.34376,-8.03783 -13.56055,-11.67884 -1.54823,-0.78114 -0.49234,-3.11179 -0.49234,-3.11179 l -6.61204,-2.65706 -2.42327,6.48405 6.42724,3.26428 c 0,0 0.81417,-3.61122 2.34388,-2.66688 6.05313,3.73705 11.60391,7.93826 10.4599,11.48298 -2.04612,6.33969 -3.99634,12.21857 -4.72186,11.98153 -19.72646,-6.44507 -40.25899,-16.56555 -50.16353,-21.41025 -0.86838,-0.42472 2.1432,-2.33072 2.1432,-2.33072 l -10.24497,-1.41963 6.60249,8.42441 c 0,0 0.14171,-3.93074 1.01088,-3.41085 8.90644,5.32708 23.97114,13.60036 32.19939,18.5277 0.60477,0.3621 -2.50711,5.36386 -5.70536,10.4833 -1.85773,2.9737 -8.9923,1.22755 -14.72127,-0.69977 -1.10772,-0.37264 -2.06662,-3.20734 -3.17507,-3.75225 -1.93814,-0.95281 -4.3263,-0.0505 -4.81146,1.75645 -0.50012,1.86285 0.68084,3.50326 2.1267,4.01709 1.11781,0.39725 4.07238,-1.17812 5.51762,-0.60204 6.58578,2.62487 14.78257,5.20372 16.80869,2.85259 4.69452,-5.44759 9.1848,-11.336 9.88678,-10.90081 22.35462,13.85869 57.07067,31.02974 79.97666,34.27248 z"
             style="color:#000000;clip-rule:nonzero;display:inline;overflow:visible;visibility:visible;opacity:1;isolation:auto;mix-blend-mode:normal;color-interpolation:sRGB;color-interpolation-filters:linearRGB;solid-color:#000000;solid-opacity:1;fill:#fffffb;fill-opacity:1;fill-rule:nonzero;stroke:none;stroke-width:0.56731951;stroke-linecap:butt;stroke-linejoin:miter;stroke-miterlimit:4;stroke-dasharray:none;stroke-dashoffset:0;stroke-opacity:1;color-rendering:auto;image-rendering:auto;shape-rendering:auto;text-rendering:auto;enable-background:accumulate" />
        </g>
      </g>
    </g>
    <g
       id="g4405"
       inkscape:export-xdpi="90"
       inkscape:export-ydpi="90">
      <path
         d="m 130.76402,285.28179 c 2.75654,0 4.04294,-2.75658 4.04294,-5.69689 0,-2.75659 -1.2864,-5.51307 -4.04294,-5.51307 l -52.374358,0 0,-118.71525 c 0,-3.12403 -3.124058,-4.41041 -6.064419,-4.41041 -3.124058,0 -6.064362,1.28638 -6.064362,4.41041 l 0,125.14725 c 0,3.12403 2.756549,4.77796 5.513041,4.77796 l 58.990098,0 z"
         id="path4158"
         inkscape:connector-curvature="0"
         style="font-style:normal;font-variant:normal;font-weight:normal;font-stretch:normal;font-size:medium;line-height:125%;font-family:Dosis;-inkscape-font-specification:Dosis;letter-spacing:0px;word-spacing:0px;fill:#1a1a1a;fill-opacity:1;stroke:none;stroke-width:1px;stroke-linecap:butt;stroke-linejoin:miter;stroke-opacity:1" />
      <path
         d="m 173.74603,197.25613 c -11.76125,0 -24.8089,4.59424 -24.8089,9.3722 0,2.75658 1.65392,6.432 4.778,6.432 2.94032,0 7.3508,-5.32935 19.66337,-5.32935 15.80418,0 21.68481,13.23145 21.68481,24.99269 l 0,4.41041 -9.37225,0 c -25.54398,0 -42.81833,5.14562 -42.81833,25.17651 0,16.5392 11.02618,24.25758 24.99268,24.25758 12.31256,0 21.31727,-6.79944 27.74923,-14.15027 l 0,8.08593 c 0,2.75648 2.389,4.77796 5.51308,4.77796 3.49162,0 5.88063,-2.02148 5.88063,-4.77796 l 0,-47.78016 c 0,-18.37696 -8.63718,-35.46754 -33.26232,-35.46754 z m 21.31728,59.90884 c 0,8.26965 -12.49634,19.29589 -24.25759,19.29589 -9.00472,0 -15.98796,-4.59424 -15.98796,-15.25292 0,-14.15028 15.62041,-15.80421 32.52723,-15.80421 l 7.71832,0 0,11.76124 z"
         id="path4160"
         inkscape:connector-curvature="0"
         style="font-style:normal;font-variant:normal;font-weight:normal;font-stretch:normal;font-size:medium;line-height:125%;font-family:Dosis;-inkscape-font-specification:Dosis;letter-spacing:0px;word-spacing:0px;fill:#1a1a1a;fill-opacity:1;stroke:none;stroke-width:1px;stroke-linecap:butt;stroke-linejoin:miter;stroke-opacity:1" />
      <path
         d="m 241.2814,231.62101 c 0,-14.70154 11.02618,-23.33875 21.86859,-23.33875 12.68011,0 22.9712,11.57752 22.9712,23.33875 l 0,48.88282 c 0,3.12403 3.1241,4.77796 5.88063,4.77796 2.94032,0 6.06441,-1.65393 6.06441,-4.77796 l 0,-48.88282 c 0,-18.92823 -15.06912,-34.36488 -32.71101,-34.36488 -12.31256,0 -20.76597,6.79944 -24.62514,13.96644 l 0,-8.45338 c 0,-2.57275 -2.57277,-4.41052 -5.51309,-4.41052 -3.49163,0 -5.88063,1.83777 -5.88063,4.41052 l 0,77.73464 c 0,2.38893 2.389,4.77796 5.88063,4.77796 3.30786,0 6.06441,-2.38903 6.06441,-4.77796 l 0,-48.88282 z"
         id="path4162"
         inkscape:connector-curvature="0"
         style="font-style:normal;font-variant:normal;font-weight:normal;font-stretch:normal;font-size:medium;line-height:125%;font-family:Dosis;-inkscape-font-specification:Dosis;letter-spacing:0px;word-spacing:0px;fill:#1a1a1a;fill-opacity:1;stroke:none;stroke-width:1px;stroke-linecap:butt;stroke-linejoin:miter;stroke-opacity:1" />
      <path
         d="m 378.40979,233.89029 c 0,-14.70154 11.02617,-23.33875 21.8686,-23.33875 12.68011,0 22.97121,11.57752 22.97121,23.33875 l 0,48.88282 c 0,3.12403 3.12409,4.77796 5.88063,4.77796 2.94031,0 6.06439,-1.65393 6.06439,-4.77796 l 0,-48.88282 c 0,-18.92823 -15.06911,-34.36488 -32.71099,-34.36488 -12.31258,0 -20.76599,6.79944 -24.62515,13.96644 l 0,-8.45338 c 0,-2.57276 -2.57278,-4.41052 -5.5131,-4.41052 -3.49162,0 -5.88063,1.83776 -5.88063,4.41052 l 0,77.73464 c 0,2.38892 2.38901,4.77796 5.88063,4.77796 3.30787,0 6.06441,-2.38904 6.06441,-4.77796 l 0,-48.88282 z"
         id="path4166"
         inkscape:connector-curvature="0"
         style="font-style:normal;font-variant:normal;font-weight:normal;font-stretch:normal;font-size:medium;line-height:125%;font-family:Dosis;-inkscape-font-specification:Dosis;letter-spacing:0px;word-spacing:0px;fill:#1a1a1a;fill-opacity:1;stroke:none;stroke-width:1px;stroke-linecap:butt;stroke-linejoin:miter;stroke-opacity:1" />
      <path
         d="m 482.44069,199.52541 c -11.76127,0 -24.80892,4.59423 -24.80892,9.3722 0,2.75658 1.65393,6.432 4.77802,6.432 2.94032,0 7.35079,-5.32935 19.66336,-5.32935 15.80419,0 21.68482,13.23145 21.68482,24.99269 l 0,4.41041 -9.37225,0 c -25.544,0 -42.81834,5.14562 -42.81834,25.17651 0,16.5392 11.02617,24.25758 24.99267,24.25758 12.31257,0 21.31729,-6.79945 27.74923,-14.15027 l 0,8.08593 c 0,2.75648 2.38901,4.77796 5.51308,4.77796 3.49163,0 5.88063,-2.02148 5.88063,-4.77796 l 0,-47.78016 c 0,-18.37696 -8.63717,-35.46754 -33.2623,-35.46754 z m 21.31728,59.90884 c 0,8.26965 -12.49634,19.29589 -24.2576,19.29589 -9.00472,0 -15.98797,-4.59424 -15.98797,-15.25292 0,-14.15028 15.62043,-15.80421 32.52725,-15.80421 l 7.71832,0 0,11.76124 z"
         id="path4168"
         inkscape:connector-curvature="0"
         style="font-style:normal;font-variant:normal;font-weight:normal;font-stretch:normal;font-size:medium;line-height:125%;font-family:Dosis;-inkscape-font-specification:Dosis;letter-spacing:0px;word-spacing:0px;fill:#1a1a1a;fill-opacity:1;stroke:none;stroke-width:1px;stroke-linecap:butt;stroke-linejoin:miter;stroke-opacity:1" />
      <path
         style="color:#000000;clip-rule:nonzero;display:inline;overflow:visible;visibility:visible;opacity:1;isolation:auto;mix-blend-mode:normal;color-interpolation:sRGB;color-interpolation-filters:linearRGB;solid-color:#000000;solid-opacity:1;fill:#ffffff;fill-opacity:1;fill-rule:nonzero;stroke:none;stroke-width:0.35898575;stroke-linecap:butt;stroke-linejoin:miter;stroke-miterlimit:4;stroke-dasharray:none;stroke-dashoffset:0;stroke-opacity:1;color-rendering:auto;image-rendering:auto;shape-rendering:auto;text-rendering:auto;enable-background:accumulate"
         d="m 392.7284,131.25801 c -2.06055,11.18032 -10.04157,20.52981 -22.42851,20.52981 -12.38693,0 -17.94201,-9.96135 -22.4285,-20.52981 -25.62131,-60.354029 -7.69276,-35.306565 20.03617,-29.88546 1.24471,0.24334 2.19735,1.44606 1.71748,2.83984 -0.175,0.50826 -1.39729,3.03825 -1.49542,3.50218 -4.09293,19.35065 1.62311,20.07193 2.23217,17.91337 2.59986,-9.21391 4.65188,-9.57378 7.00003,-11.48158 0.29609,-0.24055 1.80178,-1.04866 2.87187,-1.14577 1.23494,-0.11206 2.38773,0.6652 2.69986,0.92259 7.94446,6.55141 11.5231,7.95761 9.79485,17.33483 z"
         id="path4171"
         inkscape:connector-curvature="0"
         sodipodi:nodetypes="sssssssssss" />
      <path
         sodipodi:nodetypes="sssssssssss"
         inkscape:connector-curvature="0"
         id="path4176"
         d="m 419.90363,131.25801 c 2.06055,11.18032 10.04157,20.52981 22.42851,20.52981 12.38693,0 17.94201,-9.96135 22.4285,-20.52981 25.62131,-60.354029 7.69275,-35.306565 -20.03617,-29.88546 -1.24471,0.24334 -2.19735,1.44606 -1.71748,2.83984 0.175,0.50826 1.39729,3.03825 1.49542,3.50218 4.09293,19.35065 -1.62311,20.07193 -2.23217,17.91337 -2.59986,-9.21391 -4.65188,-9.57378 -7.00003,-11.48158 -0.29609,-0.24055 -1.80178,-1.04866 -2.87187,-1.14577 -1.23494,-0.11206 -2.38773,0.6652 -2.69986,0.92259 -7.94446,6.55141 -11.5231,7.95761 -9.79485,17.33483 z"
         style="color:#000000;clip-rule:nonzero;display:inline;overflow:visible;visibility:visible;opacity:1;isolation:auto;mix-blend-mode:normal;color-interpolation:sRGB;color-interpolation-filters:linearRGB;solid-color:#000000;solid-opacity:1;fill:#ffffff;fill-opacity:1;fill-rule:nonzero;stroke:none;stroke-width:0.35898575;stroke-linecap:butt;stroke-linejoin:miter;stroke-miterlimit:4;stroke-dasharray:none;stroke-dashoffset:0;stroke-opacity:1;color-rendering:auto;image-rendering:auto;shape-rendering:auto;text-rendering:auto;enable-background:accumulate" />
      <path
         sodipodi:nodetypes="ccssscccsscccsscccc"
         d="m 549.97551,174.52111 c -3.77305,1.21886 -7.76844,2.61238 -11.94444,4.14862 l 0,104.10338 c 0,2.38903 2.57226,4.77828 5.88009,4.77828 3.49163,0 6.06435,-2.38925 6.06435,-4.77828 l 0,-27.38215 16.9069,-14.88516 30.87316,45.39102 c 0.91885,1.4701 2.20623,2.20606 3.67638,2.20606 3.12409,0 6.43162,-3.30787 6.43162,-6.06434 0,-0.91883 -0.3682,-1.8383 -0.73574,-2.5733 l -31.79197,-46.4941 27.0149,-23.70577 c 1.10262,-0.91883 1.28609,-2.20531 1.28609,-3.30786 0,-3.12414 -3.12402,-5.69711 -6.06433,-5.69711 -0.91885,0 -1.83756,0.5517 -2.7564,1.10309 l -44.84061,39.87806 0,-48.96697 z"
         id="path4170"
         inkscape:connector-curvature="0"
         style="font-style:normal;font-variant:normal;font-weight:normal;font-stretch:normal;font-size:medium;line-height:125%;font-family:Dosis;-inkscape-font-specification:Dosis;letter-spacing:0px;word-spacing:0px;fill:#000000;fill-opacity:1;stroke:none;stroke-width:1px;stroke-linecap:butt;stroke-linejoin:miter;stroke-opacity:1" />
      <path
         d="m 650.94025,199.52541 c -19.29582,0 -35.10001,15.43665 -35.10001,33.81361 l 0,20.58216 c 0,20.94983 16.3555,34.91627 39.51048,34.91627 17.09058,0 27.56545,-7.71838 27.56545,-12.12879 0,-2.20531 -2.20523,-5.6969 -5.14555,-5.6969 -4.04294,0 -7.53456,7.35083 -22.05236,7.35083 -16.17172,0 -27.933,-9.18848 -27.933,-23.89003 l 0,-6.79955 41.53195,0 c 8.08588,0 15.98797,-0.55128 15.98797,-14.70155 0,-19.47961 -16.17173,-33.44605 -34.36493,-33.44605 z m -23.15499,39.32667 0,-6.98327 c 0,-12.31252 10.29111,-22.41982 22.97121,-22.41982 13.59896,0 22.97121,11.39369 22.97121,23.15492 0,5.14562 -1.83769,6.24817 -9.18847,6.24817 l -36.75395,0 z"
         id="path4172"
         inkscape:connector-curvature="0"
         style="font-style:normal;font-variant:normal;font-weight:normal;font-stretch:normal;font-size:medium;line-height:125%;font-family:Dosis;-inkscape-font-specification:Dosis;letter-spacing:0px;word-spacing:0px;fill:#1a1a1a;fill-opacity:1;stroke:none;stroke-width:1px;stroke-linecap:butt;stroke-linejoin:miter;stroke-opacity:1" />
      <path
         style="font-style:normal;font-variant:normal;font-weight:normal;font-stretch:normal;font-size:medium;line-height:125%;font-family:Dosis;-inkscape-font-specification:Dosis;letter-spacing:0px;word-spacing:0px;fill:#1a1a1a;fill-opacity:1;stroke:none;stroke-width:1px;stroke-linecap:butt;stroke-linejoin:miter;stroke-opacity:1"
         inkscape:connector-curvature="0"
         id="path4236"
         d="m 549.97551,174.52111 c -3.77305,1.21886 -7.76844,2.61238 -11.94444,4.14862 l 0,104.10338 c 0,2.38903 2.57226,4.77828 5.88009,4.77828 3.49163,0 6.06435,-2.38925 6.06435,-4.77828 l 0,-27.38215 16.9069,-14.88516 30.87316,45.39102 c 0.91885,1.4701 2.20623,2.20606 3.67638,2.20606 3.12409,0 6.43162,-3.30787 6.43162,-6.06434 0,-0.91883 -0.3682,-1.8383 -0.73574,-2.5733 l -31.79197,-46.4941 27.0149,-23.70577 c 1.10262,-0.91883 1.28609,-2.20531 1.28609,-3.30786 0,-3.12414 -3.12402,-5.69711 -6.06433,-5.69711 -0.91885,0 -1.83756,0.5517 -2.7564,1.10309 l -44.84061,39.87806 0,-48.96697 z"
         sodipodi:nodetypes="ccssscccsscccsscccc" />
      <g
         id="g4273"
         transform="translate(-14.000001,-702)">
        <g
           id="g4275"
           transform="matrix(0.56731954,0,0,0.56731954,215.20252,541.2743)"
           inkscape:export-xdpi="90"
           inkscape:export-ydpi="90">
          <g
             transform="translate(50.911688,-28.284272)"
             id="g4277"
             style="color:#000000;font-style:normal;font-weight:normal;font-size:40px;line-height:125%;font-family:sans-serif;letter-spacing:0px;word-spacing:0px;clip-rule:nonzero;display:inline;overflow:visible;visibility:visible;opacity:1;isolation:auto;mix-blend-mode:normal;color-interpolation:sRGB;color-interpolation-filters:linearRGB;solid-color:#000000;solid-opacity:1;fill:#0689fb;fill-opacity:1;fill-rule:nonzero;stroke:none;stroke-width:1;stroke-linecap:butt;stroke-linejoin:miter;stroke-miterlimit:4;stroke-dasharray:none;stroke-dashoffset:0;stroke-opacity:1;color-rendering:auto;image-rendering:auto;shape-rendering:auto;text-rendering:auto;enable-background:accumulate">
            <path
               sodipodi:nodetypes="csccccsscscccc"
               inkscape:connector-curvature="0"
               id="path4279"
               style="color:#000000;font-style:normal;font-variant:normal;font-weight:normal;font-stretch:normal;font-size:625px;font-family:UnDinaru;-inkscape-font-specification:UnDinaru;clip-rule:nonzero;display:inline;overflow:visible;visibility:visible;isolation:auto;mix-blend-mode:normal;color-interpolation:sRGB;color-interpolation-filters:linearRGB;solid-color:#000000;solid-opacity:1;fill:#0689fb;fill-opacity:1;fill-rule:nonzero;stroke:none;stroke-width:1;stroke-linecap:butt;stroke-linejoin:miter;stroke-miterlimit:4;stroke-dasharray:none;stroke-dashoffset:0;stroke-opacity:1;color-rendering:auto;image-rendering:auto;shape-rendering:auto;text-rendering:auto;enable-background:accumulate"
               d="m 227.94408,478.95343 c 12.20703,8.34147 18.31055,18.20882 18.31055,29.60205 0,6.71387 -2.54313,12.30876 -7.6294,16.78467 -5.69661,4.88281 -9.6984,42.32422 -16.00537,42.32422 -101.66904,-68.82868 -186.587375,-13.05463 -100.98047,48.82519 82.59333,45.80049 157.7444,136.49864 103.61415,198.03921 -14.59836,11.79651 -38.33915,25.02046 -67.26096,19.82836 -13.87064,-2.49008 -16.18954,-4.11571 -31.77199,-11.96085 -16.81148,-8.46391 -27.14153,-19.20599 -74.522115,-36.38181 10.913254,-0.47211 62.375725,17.65512 105.768065,24.30289 10.64114,1.63024 23.37137,-2.44791 25.10616,-3.401 17.70348,-9.56894 22.30688,-83.93952 -61.95374,-124.26919 C 37.188852,639.94615 -45.104141,577.75151 10.612537,496.60724 57.691067,438.39078 167.13797,436.79578 227.94408,478.95343 Z" />
          </g>
          <g
             id="g4281">
            <g
               id="g4283">
              <path
                 id="path4285"
                 d="m 346.48242,341.21484 c -77.54697,0 -144.56972,62.07261 -140.41211,138.39063 2.41026,44.24328 43.45263,91.00988 55.95313,130.0293 6.80861,21.25258 9.10631,32.74574 31.71679,37.66796 12.02027,2.61677 43.46167,-14.27929 54.61524,-14.27929 0.37201,0 0.75873,0.019 1.1582,0.0488 l 0,-291.82032 c -1.00862,-0.0211 -2.0175,-0.0371 -3.03125,-0.0371 z m 7.00586,0 c -1.01375,0 -2.02263,0.016 -3.03125,0.0371 l 0,291.82032 c 0.39947,-0.0298 0.78619,-0.0488 1.1582,-0.0488 11.15357,0 42.59497,16.89606 54.61524,14.27929 22.61048,-4.92222 24.90819,-16.41538 31.7168,-37.66796 12.5005,-39.01942 53.54286,-85.78602 55.95312,-130.0293 C 498.058,403.28745 431.03525,341.21484 353.48828,341.21484 Z"
                 style="color:#000000;clip-rule:nonzero;display:inline;overflow:visible;visibility:visible;opacity:1;isolation:auto;mix-blend-mode:normal;color-interpolation:sRGB;color-interpolation-filters:linearRGB;solid-color:#000000;solid-opacity:1;fill:#0689fb;fill-opacity:1;fill-rule:nonzero;stroke:none;stroke-width:1;stroke-linecap:butt;stroke-linejoin:miter;stroke-miterlimit:4;stroke-dasharray:none;stroke-dashoffset:0;stroke-opacity:1;color-rendering:auto;image-rendering:auto;shape-rendering:auto;text-rendering:auto;enable-background:accumulate"
                 inkscape:connector-curvature="0" />
              <path
                 sodipodi:nodetypes="sssssssssss"
                 inkscape:connector-curvature="0"
                 id="path4287"
                 d="m 326.29315,525.24846 c -3.63208,19.70727 -17.70003,36.18738 -39.53417,36.18738 -21.83413,0 -31.62594,-17.55862 -39.53416,-36.18738 -45.16204,-106.38455 -13.55983,-62.23401 35.31725,-52.67837 2.19402,0.42894 3.87322,2.54894 3.02736,5.00572 -0.30847,0.8959 -2.46296,5.35545 -2.63593,6.1732 -7.21451,34.10891 2.86101,35.38029 3.93458,31.57546 4.58271,-16.24114 8.19975,-16.87547 12.33878,-20.23829 0.52191,-0.42402 3.17595,-1.84845 5.06218,-2.01962 2.17679,-0.19754 4.20879,1.17253 4.75897,1.62622 14.0035,11.548 20.31149,14.02668 17.26514,30.55568 z"
                 style="color:#000000;clip-rule:nonzero;display:inline;overflow:visible;visibility:visible;opacity:1;isolation:auto;mix-blend-mode:normal;color-interpolation:sRGB;color-interpolation-filters:linearRGB;solid-color:#000000;solid-opacity:1;fill:#ffffff;fill-opacity:1;fill-rule:nonzero;stroke:none;stroke-width:0.35898575;stroke-linecap:butt;stroke-linejoin:miter;stroke-miterlimit:4;stroke-dasharray:none;stroke-dashoffset:0;stroke-opacity:1;color-rendering:auto;image-rendering:auto;shape-rendering:auto;text-rendering:auto;enable-background:accumulate" />
              <path
                 style="color:#000000;clip-rule:nonzero;display:inline;overflow:visible;visibility:visible;opacity:1;isolation:auto;mix-blend-mode:normal;color-interpolation:sRGB;color-interpolation-filters:linearRGB;solid-color:#000000;solid-opacity:1;fill:#ffffff;fill-opacity:1;fill-rule:nonzero;stroke:none;stroke-width:0.35898575;stroke-linecap:butt;stroke-linejoin:miter;stroke-miterlimit:4;stroke-dasharray:none;stroke-dashoffset:0;stroke-opacity:1;color-rendering:auto;image-rendering:auto;shape-rendering:auto;text-rendering:auto;enable-background:accumulate"
                 d="m 374.19425,525.24846 c 3.63208,19.70727 17.70003,36.18738 39.53417,36.18738 21.83413,0 31.62594,-17.55862 39.53416,-36.18738 45.16204,-106.38455 13.55983,-62.23401 -35.31725,-52.67837 -2.19402,0.42894 -3.87322,2.54894 -3.02736,5.00572 0.30847,0.8959 2.46296,5.35545 2.63593,6.1732 7.21451,34.10891 -2.86101,35.38029 -3.93458,31.57546 -4.58271,-16.24114 -8.19975,-16.87547 -12.33878,-20.23829 -0.52191,-0.42402 -3.17595,-1.84845 -5.06218,-2.01962 -2.17679,-0.19754 -4.20879,1.17253 -4.75897,1.62622 -14.0035,11.548 -20.31149,14.02668 -17.26514,30.55568 z"
                 id="path4289"
                 inkscape:connector-curvature="0"
                 sodipodi:nodetypes="sssssssssss" />
            </g>
            <path
               style="color:#000000;clip-rule:nonzero;display:inline;overflow:visible;visibility:visible;opacity:1;isolation:auto;mix-blend-mode:normal;color-interpolation:sRGB;color-interpolation-filters:linearRGB;solid-color:#000000;solid-opacity:1;fill:#0689fb;fill-opacity:1;fill-rule:nonzero;stroke:none;stroke-width:1;stroke-linecap:butt;stroke-linejoin:miter;stroke-miterlimit:4;stroke-dasharray:none;stroke-dashoffset:0;stroke-opacity:1;color-rendering:auto;image-rendering:auto;shape-rendering:auto;text-rendering:auto;enable-background:accumulate"
               d="m 340.82369,624.55613 c 0.54303,9.98554 6.64733,20.97707 -0.54514,28.57829 -23.22959,28.99348 -16.99481,28.52002 -24.37117,42.00439 10.52322,-12.79465 21.24483,-30.91649 33.19533,-29.48942 2.33718,-0.51681 22.36727,17.71479 33.2837,31.95161 -6.29975,-13.38691 -1.90505,-8.96664 -24.16421,-44.08324 -2.80935,-1.81893 -3.57283,-19.23407 -3.61006,-29.10671 z"
               id="path4291"
               inkscape:connector-curvature="0"
               sodipodi:nodetypes="cccccccc" />
          </g>
          <ellipse
             ry="143.45428"
             rx="16.263456"
             cy="484.64386"
             cx="349.75272"
             id="ellipse4293"
             style="color:#000000;clip-rule:nonzero;display:inline;overflow:visible;visibility:visible;opacity:1;isolation:auto;mix-blend-mode:normal;color-interpolation:sRGB;color-interpolation-filters:linearRGB;solid-color:#000000;solid-opacity:1;fill:#0689fb;fill-opacity:1;fill-rule:nonzero;stroke:none;stroke-width:1;stroke-linecap:butt;stroke-linejoin:miter;stroke-miterlimit:4;stroke-dasharray:none;stroke-dashoffset:0;stroke-opacity:1;color-rendering:auto;image-rendering:auto;shape-rendering:auto;text-rendering:auto;enable-background:accumulate" />
        </g>
        <path
           style="color:#000000;clip-rule:nonzero;display:inline;overflow:visible;visibility:visible;opacity:1;isolation:auto;mix-blend-mode:normal;color-interpolation:sRGB;color-interpolation-filters:linearRGB;solid-color:#000000;solid-opacity:1;fill:#0689fb;fill-opacity:1;fill-rule:nonzero;stroke:none;stroke-width:1;stroke-linecap:butt;stroke-linejoin:miter;stroke-miterlimit:4;stroke-dasharray:none;stroke-dashoffset:0;stroke-opacity:1;color-rendering:auto;image-rendering:auto;shape-rendering:auto;text-rendering:auto;enable-background:accumulate"
           d="m 335.81704,985.24067 c -20.04695,-2.24311 -24.86601,-5.46853 -37.04059,-9.21661 -2.55937,-0.78793 -21.3959,-10.12608 -23.89357,-10.91637 -0.66049,-0.20898 1.25368,-7.3732 2.84533,-15.03323 0.70476,-3.39193 -6.34376,-8.03783 -13.56055,-11.67884 -1.54823,-0.78114 -0.49234,-3.11179 -0.49234,-3.11179 l -6.61204,-2.65706 -2.42327,6.48405 6.42724,3.26428 c 0,0 0.81417,-3.61122 2.34388,-2.66688 6.05313,3.73705 11.60391,7.93826 10.4599,11.48298 -2.04612,6.33969 -3.99634,12.21857 -4.72186,11.98153 -19.72646,-6.44507 -40.25899,-16.56555 -50.16353,-21.41025 -0.86838,-0.42472 2.1432,-2.33072 2.1432,-2.33072 l -10.24497,-1.41963 6.60249,8.42441 c 0,0 0.14171,-3.93074 1.01088,-3.41085 8.90644,5.32708 23.97114,13.60036 32.19939,18.5277 0.60477,0.3621 -2.50711,5.36386 -5.70536,10.4833 -1.85773,2.9737 -8.9923,1.22755 -14.72127,-0.69977 -1.10772,-0.37264 -2.06662,-3.20734 -3.17507,-3.75225 -1.93814,-0.95281 -4.3263,-0.0505 -4.81146,1.75645 -0.50012,1.86285 0.68084,3.50326 2.1267,4.01709 1.11781,0.39725 4.07238,-1.17812 5.51762,-0.60204 6.58578,2.62487 14.78257,5.20372 16.80869,2.85259 4.69452,-5.44759 9.1848,-11.336 9.88678,-10.90081 22.35462,13.85869 57.07067,31.02974 79.97666,34.27248 z"
           id="path4295"
           inkscape:connector-curvature="0"
           sodipodi:nodetypes="csscccccccssccccccscccscsscc" />
        <path
           sodipodi:nodetypes="csscccccccssccccccscccscsscc"
           inkscape:connector-curvature="0"
           id="path4297"
           d="m 335.81704,985.24067 c -20.04695,-2.24311 -24.86601,-5.46853 -37.04059,-9.21661 -2.55937,-0.78793 -21.3959,-10.12608 -23.89357,-10.91637 -0.66049,-0.20898 1.25368,-7.3732 2.84533,-15.03323 0.70476,-3.39193 -6.34376,-8.03783 -13.56055,-11.67884 -1.54823,-0.78114 -0.49234,-3.11179 -0.49234,-3.11179 l -6.61204,-2.65706 -2.42327,6.48405 6.42724,3.26428 c 0,0 0.81417,-3.61122 2.34388,-2.66688 6.05313,3.73705 11.60391,7.93826 10.4599,11.48298 -2.04612,6.33969 -3.99634,12.21857 -4.72186,11.98153 -19.72646,-6.44507 -40.25899,-16.56555 -50.16353,-21.41025 -0.86838,-0.42472 2.1432,-2.33072 2.1432,-2.33072 l -10.24497,-1.41963 6.60249,8.42441 c 0,0 0.14171,-3.93074 1.01088,-3.41085 8.90644,5.32708 23.97114,13.60036 32.19939,18.5277 0.60477,0.3621 -2.50711,5.36386 -5.70536,10.4833 -1.85773,2.9737 -8.9923,1.22755 -14.72127,-0.69977 -1.10772,-0.37264 -2.06662,-3.20734 -3.17507,-3.75225 -1.93814,-0.95281 -4.3263,-0.0505 -4.81146,1.75645 -0.50012,1.86285 0.68084,3.50326 2.1267,4.01709 1.11781,0.39725 4.07238,-1.17812 5.51762,-0.60204 6.58578,2.62487 14.78257,5.20372 16.80869,2.85259 4.69452,-5.44759 9.1848,-11.336 9.88678,-10.90081 22.35462,13.85869 57.07067,31.02974 79.97666,34.27248 z"
           style="color:#000000;clip-rule:nonzero;display:inline;overflow:visible;visibility:visible;opacity:1;isolation:auto;mix-blend-mode:normal;color-interpolation:sRGB;color-interpolation-filters:linearRGB;solid-color:#000000;solid-opacity:1;fill:#0689fb;fill-opacity:1;fill-rule:nonzero;stroke:none;stroke-width:1;stroke-linecap:butt;stroke-linejoin:miter;stroke-miterlimit:4;stroke-dasharray:none;stroke-dashoffset:0;stroke-opacity:1;color-rendering:auto;image-rendering:auto;shape-rendering:auto;text-rendering:auto;enable-background:accumulate" />
      </g>
    </g>
  </g>
</svg>
